<mxfile host="app.diagrams.net" agent="Mozilla/5.0 (Windows NT 10.0; Win64; x64) AppleWebKit/537.36 (KHTML, like Gecko) Chrome/140.0.0.0 Safari/537.36" version="28.2.5">
  <diagram name="Page-1" id="BfOQDy3NjX50TfL9HEzu">
    <mxGraphModel dx="1737" dy="878" grid="1" gridSize="10" guides="1" tooltips="1" connect="1" arrows="1" fold="1" page="0" pageScale="1" pageWidth="850" pageHeight="1100" background="light-dark(#FFFFFF,#FFFFFF)" math="0" shadow="0">
      <root>
        <mxCell id="0" />
        <mxCell id="1" parent="0" />
        <mxCell id="UaSYW-c0ICVF9EInqUsB-162" value="" style="rounded=0;html=1;jettySize=auto;orthogonalLoop=1;fontSize=11;endArrow=open;endFill=0;endSize=8;strokeWidth=1;shadow=0;labelBackgroundColor=none;edgeStyle=orthogonalEdgeStyle;strokeColor=light-dark(#000000,#000000);" edge="1" parent="1" source="UaSYW-c0ICVF9EInqUsB-171" target="UaSYW-c0ICVF9EInqUsB-165">
          <mxGeometry relative="1" as="geometry" />
        </mxCell>
        <mxCell id="UaSYW-c0ICVF9EInqUsB-163" value="&lt;font style=&quot;color: light-dark(rgb(0, 0, 0), rgb(0, 0, 0));&quot;&gt;Log in&lt;/font&gt;" style="rounded=1;whiteSpace=wrap;html=1;fontSize=12;glass=0;strokeWidth=1;shadow=0;fillColor=light-dark(#F59E0B,#F59E0B);strokeColor=light-dark(#000000,#000000);" vertex="1" parent="1">
          <mxGeometry x="350" y="213" width="120" height="40" as="geometry" />
        </mxCell>
        <mxCell id="UaSYW-c0ICVF9EInqUsB-164" value="&lt;font style=&quot;color: light-dark(rgb(0, 0, 0), rgb(0, 0, 0)); font-size: 12px;&quot;&gt;Invalid&lt;/font&gt;" style="edgeStyle=orthogonalEdgeStyle;rounded=0;html=1;jettySize=auto;orthogonalLoop=1;fontSize=11;endArrow=open;endFill=0;endSize=8;strokeWidth=1;shadow=0;labelBackgroundColor=none;strokeColor=light-dark(#000000,#000000);entryX=1;entryY=0.5;entryDx=0;entryDy=0;" edge="1" parent="1" source="UaSYW-c0ICVF9EInqUsB-165" target="UaSYW-c0ICVF9EInqUsB-171">
          <mxGeometry x="0.0651" y="30" relative="1" as="geometry">
            <mxPoint as="offset" />
            <mxPoint x="600.090909090909" y="323" as="targetPoint" />
            <Array as="points">
              <mxPoint x="600" y="418" />
              <mxPoint x="600" y="313" />
            </Array>
          </mxGeometry>
        </mxCell>
        <mxCell id="UaSYW-c0ICVF9EInqUsB-165" value="&lt;font style=&quot;color: light-dark(rgb(0, 0, 0), rgb(0, 0, 0));&quot;&gt;Check&lt;/font&gt;" style="rhombus;whiteSpace=wrap;html=1;shadow=0;fontFamily=Helvetica;fontSize=12;align=center;strokeWidth=1;spacing=6;spacingTop=-4;fillColor=light-dark(#F59E0B,#F59E0B);strokeColor=light-dark(#000000,#000000);" vertex="1" parent="1">
          <mxGeometry x="370" y="383" width="80" height="70" as="geometry" />
        </mxCell>
        <mxCell id="UaSYW-c0ICVF9EInqUsB-166" value="&lt;font style=&quot;color: light-dark(rgb(0, 0, 0), rgb(0, 0, 0));&quot;&gt;Log out&lt;/font&gt;" style="rounded=1;whiteSpace=wrap;html=1;fontSize=12;glass=0;strokeWidth=1;shadow=0;strokeColor=light-dark(#000000,#000000);fillColor=light-dark(#F59E0B,#F59E0B);" vertex="1" parent="1">
          <mxGeometry x="350" y="863" width="120" height="40" as="geometry" />
        </mxCell>
        <mxCell id="UaSYW-c0ICVF9EInqUsB-167" value="" style="ellipse;html=1;shape=endState;fillColor=light-dark(#F59E0B,#F59E0B);strokeColor=light-dark(#000000,#000000);" vertex="1" parent="1">
          <mxGeometry x="395" y="153" width="30" height="30" as="geometry" />
        </mxCell>
        <mxCell id="UaSYW-c0ICVF9EInqUsB-168" value="" style="endArrow=none;html=1;rounded=0;strokeColor=light-dark(#000000,#000000);entryX=0.5;entryY=1;entryDx=0;entryDy=0;exitX=0.5;exitY=0;exitDx=0;exitDy=0;" edge="1" parent="1" source="UaSYW-c0ICVF9EInqUsB-163" target="UaSYW-c0ICVF9EInqUsB-167">
          <mxGeometry width="50" height="50" relative="1" as="geometry">
            <mxPoint x="385" y="213" as="sourcePoint" />
            <mxPoint x="435" y="163" as="targetPoint" />
          </mxGeometry>
        </mxCell>
        <mxCell id="UaSYW-c0ICVF9EInqUsB-169" value="" style="ellipse;html=1;shape=endState;fillColor=light-dark(#F59E0B,#F59E0B);strokeColor=light-dark(#000000,#000000);" vertex="1" parent="1">
          <mxGeometry x="395" y="933" width="30" height="30" as="geometry" />
        </mxCell>
        <mxCell id="UaSYW-c0ICVF9EInqUsB-170" value="" style="rounded=0;html=1;jettySize=auto;orthogonalLoop=1;fontSize=11;endArrow=open;endFill=0;endSize=8;strokeWidth=1;shadow=0;labelBackgroundColor=none;edgeStyle=orthogonalEdgeStyle;strokeColor=light-dark(#000000,#000000);" edge="1" parent="1" source="UaSYW-c0ICVF9EInqUsB-163" target="UaSYW-c0ICVF9EInqUsB-171">
          <mxGeometry relative="1" as="geometry">
            <mxPoint x="410" y="253" as="sourcePoint" />
            <mxPoint x="410" y="513" as="targetPoint" />
          </mxGeometry>
        </mxCell>
        <mxCell id="UaSYW-c0ICVF9EInqUsB-171" value="&lt;font style=&quot;color: light-dark(rgb(0, 0, 0), rgb(0, 0, 0));&quot;&gt;Authentication&lt;/font&gt;" style="rounded=1;whiteSpace=wrap;html=1;fontSize=12;glass=0;strokeWidth=1;shadow=0;fillColor=light-dark(#F59E0B,#F59E0B);strokeColor=light-dark(#000000,#000000);" vertex="1" parent="1">
          <mxGeometry x="350" y="293" width="120" height="40" as="geometry" />
        </mxCell>
        <mxCell id="UaSYW-c0ICVF9EInqUsB-172" value="" style="html=1;points=[[0,0,0,0,5],[0,1,0,0,-5],[1,0,0,0,5],[1,1,0,0,-5]];perimeter=orthogonalPerimeter;outlineConnect=0;targetShapes=umlLifeline;portConstraint=eastwest;newEdgeStyle={&quot;curved&quot;:0,&quot;rounded&quot;:0};rotation=-90;strokeColor=light-dark(#000000,#000000);fillColor=light-dark(#F59E0B,#F59E0B);" vertex="1" parent="1">
          <mxGeometry x="405" y="120" width="10" height="756" as="geometry" />
        </mxCell>
        <mxCell id="UaSYW-c0ICVF9EInqUsB-173" value="&lt;font style=&quot;color: light-dark(rgb(0, 0, 0), rgb(0, 0, 0));&quot;&gt;Manage products&lt;/font&gt;" style="rounded=1;whiteSpace=wrap;html=1;fontSize=12;glass=0;strokeWidth=1;shadow=0;fillColor=light-dark(#F59E0B,#F59E0B);strokeColor=light-dark(#000000,#000000);" vertex="1" parent="1">
          <mxGeometry x="100" y="590" width="120" height="40" as="geometry" />
        </mxCell>
        <mxCell id="UaSYW-c0ICVF9EInqUsB-174" value="" style="endArrow=open;endFill=1;endSize=12;html=1;rounded=0;strokeColor=light-dark(#000000,#000000);entryX=0.5;entryY=0;entryDx=0;entryDy=0;" edge="1" parent="1" source="UaSYW-c0ICVF9EInqUsB-172" target="UaSYW-c0ICVF9EInqUsB-173">
          <mxGeometry width="160" relative="1" as="geometry">
            <mxPoint x="299.98000000000013" y="502.6600000000001" as="sourcePoint" />
            <mxPoint x="300" y="623" as="targetPoint" />
          </mxGeometry>
        </mxCell>
        <mxCell id="UaSYW-c0ICVF9EInqUsB-175" value="" style="endArrow=open;endFill=1;endSize=12;html=1;rounded=0;strokeColor=light-dark(#000000,#000000);exitX=0.25;exitY=1;exitDx=0;exitDy=0;entryX=0.5;entryY=0;entryDx=0;entryDy=0;" edge="1" parent="1" source="UaSYW-c0ICVF9EInqUsB-173" target="UaSYW-c0ICVF9EInqUsB-176">
          <mxGeometry width="160" relative="1" as="geometry">
            <mxPoint x="155" y="630" as="sourcePoint" />
            <mxPoint x="185" y="690" as="targetPoint" />
          </mxGeometry>
        </mxCell>
        <mxCell id="UaSYW-c0ICVF9EInqUsB-176" value="&lt;font style=&quot;color: light-dark(rgb(0, 0, 0), rgb(0, 0, 0));&quot;&gt;Edit products&lt;/font&gt;" style="rounded=1;whiteSpace=wrap;html=1;fontSize=12;glass=0;strokeWidth=1;shadow=0;strokeColor=light-dark(#000000,#000000);fillColor=light-dark(#F59E0B,#F59E0B);" vertex="1" parent="1">
          <mxGeometry x="50" y="680" width="95" height="40" as="geometry" />
        </mxCell>
        <mxCell id="UaSYW-c0ICVF9EInqUsB-177" value="" style="html=1;points=[[0,0,0,0,5],[0,1,0,0,-5],[1,0,0,0,5],[1,1,0,0,-5]];perimeter=orthogonalPerimeter;outlineConnect=0;targetShapes=umlLifeline;portConstraint=eastwest;newEdgeStyle={&quot;curved&quot;:0,&quot;rounded&quot;:0};rotation=-90;strokeColor=light-dark(#000000,#000000);fillColor=light-dark(#F59E0B,#F59E0B);" vertex="1" parent="1">
          <mxGeometry x="405" y="430" width="10" height="761" as="geometry" />
        </mxCell>
        <mxCell id="UaSYW-c0ICVF9EInqUsB-178" value="" style="endArrow=open;endFill=1;endSize=12;html=1;rounded=0;exitX=0.5;exitY=1;exitDx=0;exitDy=0;strokeColor=light-dark(#000000,#000000);" edge="1" parent="1" source="UaSYW-c0ICVF9EInqUsB-165" target="UaSYW-c0ICVF9EInqUsB-172">
          <mxGeometry width="160" relative="1" as="geometry">
            <mxPoint x="360" y="493" as="sourcePoint" />
            <mxPoint x="520" y="493" as="targetPoint" />
          </mxGeometry>
        </mxCell>
        <mxCell id="UaSYW-c0ICVF9EInqUsB-179" value="&lt;font style=&quot;color: light-dark(rgb(0, 0, 0), rgb(0, 0, 0));&quot;&gt;Manage Custom Orders&lt;/font&gt;" style="rounded=1;whiteSpace=wrap;html=1;fontSize=12;glass=0;strokeWidth=1;shadow=0;fillColor=light-dark(#F59E0B,#F59E0B);strokeColor=light-dark(#000000,#000000);" vertex="1" parent="1">
          <mxGeometry x="610" y="590" width="120" height="40" as="geometry" />
        </mxCell>
        <mxCell id="UaSYW-c0ICVF9EInqUsB-180" value="" style="endArrow=open;endFill=1;endSize=12;html=1;rounded=0;strokeColor=light-dark(#000000,#000000);entryX=0.5;entryY=0;entryDx=0;entryDy=0;" edge="1" parent="1" source="UaSYW-c0ICVF9EInqUsB-172" target="UaSYW-c0ICVF9EInqUsB-179">
          <mxGeometry width="160" relative="1" as="geometry">
            <mxPoint x="520.0000000000002" y="503.59000000000015" as="sourcePoint" />
            <mxPoint x="659.98" y="623" as="targetPoint" />
          </mxGeometry>
        </mxCell>
        <mxCell id="UaSYW-c0ICVF9EInqUsB-181" value="" style="endArrow=open;endFill=1;endSize=12;html=1;rounded=0;strokeColor=light-dark(#000000,#000000);exitX=0.5;exitY=1;exitDx=0;exitDy=0;entryX=0.5;entryY=0;entryDx=0;entryDy=0;" edge="1" parent="1" source="UaSYW-c0ICVF9EInqUsB-179" target="UaSYW-c0ICVF9EInqUsB-191">
          <mxGeometry width="160" relative="1" as="geometry">
            <mxPoint x="644.98" y="625" as="sourcePoint" />
            <mxPoint x="658.7500000000002" y="774.8899999999999" as="targetPoint" />
          </mxGeometry>
        </mxCell>
        <mxCell id="UaSYW-c0ICVF9EInqUsB-182" value="&lt;font style=&quot;color: light-dark(rgb(0, 0, 0), rgb(0, 0, 0));&quot;&gt;Yes&lt;/font&gt;" style="text;html=1;align=center;verticalAlign=middle;resizable=0;points=[];autosize=1;strokeColor=none;fillColor=none;" vertex="1" parent="1">
          <mxGeometry x="365" y="451" width="40" height="30" as="geometry" />
        </mxCell>
        <mxCell id="UaSYW-c0ICVF9EInqUsB-183" value="" style="endArrow=none;html=1;rounded=0;strokeColor=light-dark(#000000,#000000);entryX=0.5;entryY=1;entryDx=0;entryDy=0;exitX=0.5;exitY=0;exitDx=0;exitDy=0;" edge="1" parent="1">
          <mxGeometry width="50" height="50" relative="1" as="geometry">
            <mxPoint x="409.63" y="933" as="sourcePoint" />
            <mxPoint x="409.63" y="903" as="targetPoint" />
          </mxGeometry>
        </mxCell>
        <mxCell id="UaSYW-c0ICVF9EInqUsB-184" value="" style="endArrow=open;endFill=1;endSize=12;html=1;rounded=0;strokeColor=light-dark(#000000,#000000);exitX=0.493;exitY=0.997;exitDx=0;exitDy=0;exitPerimeter=0;" edge="1" parent="1" source="UaSYW-c0ICVF9EInqUsB-176" target="UaSYW-c0ICVF9EInqUsB-177">
          <mxGeometry width="160" relative="1" as="geometry">
            <mxPoint x="160" y="740" as="sourcePoint" />
            <mxPoint x="248.66999999999985" y="804.7299999999998" as="targetPoint" />
          </mxGeometry>
        </mxCell>
        <mxCell id="UaSYW-c0ICVF9EInqUsB-185" value="" style="endArrow=open;endFill=1;endSize=12;html=1;rounded=0;strokeColor=light-dark(#000000,#000000);" edge="1" parent="1" source="UaSYW-c0ICVF9EInqUsB-177">
          <mxGeometry width="160" relative="1" as="geometry">
            <mxPoint x="409.89" y="823" as="sourcePoint" />
            <mxPoint x="409.89" y="863" as="targetPoint" />
          </mxGeometry>
        </mxCell>
        <mxCell id="UaSYW-c0ICVF9EInqUsB-186" value="&lt;font style=&quot;color: light-dark(rgb(0, 0, 0), rgb(0, 0, 0));&quot;&gt;Manage customers&lt;/font&gt;" style="rounded=1;whiteSpace=wrap;html=1;fontSize=12;glass=0;strokeWidth=1;shadow=0;fillColor=light-dark(#F59E0B,#F59E0B);strokeColor=light-dark(#000000,#000000);" vertex="1" parent="1">
          <mxGeometry x="285" y="597.34" width="120" height="40" as="geometry" />
        </mxCell>
        <mxCell id="UaSYW-c0ICVF9EInqUsB-187" value="" style="endArrow=open;endFill=1;endSize=12;html=1;rounded=0;strokeColor=light-dark(#000000,#000000);entryX=0.5;entryY=0;entryDx=0;entryDy=0;" edge="1" parent="1" target="UaSYW-c0ICVF9EInqUsB-186">
          <mxGeometry width="160" relative="1" as="geometry">
            <mxPoint x="345" y="503" as="sourcePoint" />
            <mxPoint x="405" y="620.34" as="targetPoint" />
          </mxGeometry>
        </mxCell>
        <mxCell id="UaSYW-c0ICVF9EInqUsB-188" value="" style="endArrow=open;endFill=1;endSize=12;html=1;rounded=0;strokeColor=light-dark(#000000,#000000);exitX=0.5;exitY=1;exitDx=0;exitDy=0;" edge="1" parent="1" source="UaSYW-c0ICVF9EInqUsB-186">
          <mxGeometry width="160" relative="1" as="geometry">
            <mxPoint x="315" y="642.34" as="sourcePoint" />
            <mxPoint x="345" y="805.5" as="targetPoint" />
          </mxGeometry>
        </mxCell>
        <mxCell id="UaSYW-c0ICVF9EInqUsB-189" value="&lt;font style=&quot;color: light-dark(rgb(0, 0, 0), rgb(0, 0, 0));&quot;&gt;Add/remove products&lt;/font&gt;" style="rounded=1;whiteSpace=wrap;html=1;fontSize=12;glass=0;strokeWidth=1;shadow=0;strokeColor=light-dark(#000000,#000000);fillColor=light-dark(#F59E0B,#F59E0B);" vertex="1" parent="1">
          <mxGeometry x="165" y="680" width="95" height="40" as="geometry" />
        </mxCell>
        <mxCell id="UaSYW-c0ICVF9EInqUsB-190" value="" style="endArrow=open;endFill=1;endSize=12;html=1;rounded=0;strokeColor=light-dark(#000000,#000000);exitX=0.75;exitY=1;exitDx=0;exitDy=0;entryX=0.5;entryY=0;entryDx=0;entryDy=0;" edge="1" parent="1" source="UaSYW-c0ICVF9EInqUsB-173" target="UaSYW-c0ICVF9EInqUsB-189">
          <mxGeometry width="160" relative="1" as="geometry">
            <mxPoint x="215" y="630" as="sourcePoint" />
            <mxPoint x="265" y="680" as="targetPoint" />
          </mxGeometry>
        </mxCell>
        <mxCell id="UaSYW-c0ICVF9EInqUsB-191" value="&lt;font style=&quot;color: light-dark(rgb(0, 0, 0), rgb(0, 0, 0));&quot;&gt;Accept/Reject&lt;/font&gt;" style="rounded=1;whiteSpace=wrap;html=1;fontSize=12;glass=0;strokeWidth=1;shadow=0;fillColor=light-dark(#F59E0B,#F59E0B);strokeColor=light-dark(#000000,#000000);" vertex="1" parent="1">
          <mxGeometry x="610" y="690" width="120" height="40" as="geometry" />
        </mxCell>
        <mxCell id="UaSYW-c0ICVF9EInqUsB-192" value="" style="endArrow=open;endFill=1;endSize=12;html=1;rounded=0;strokeColor=light-dark(#000000,#000000);exitX=0.468;exitY=1.005;exitDx=0;exitDy=0;exitPerimeter=0;" edge="1" parent="1" target="UaSYW-c0ICVF9EInqUsB-177">
          <mxGeometry width="160" relative="1" as="geometry">
            <mxPoint x="669.9900000000001" y="729.9999999999999" as="sourcePoint" />
            <mxPoint x="669.83" y="799.8" as="targetPoint" />
          </mxGeometry>
        </mxCell>
        <mxCell id="UaSYW-c0ICVF9EInqUsB-193" value="&lt;font style=&quot;color: light-dark(rgb(0, 0, 0), rgb(0, 0, 0));&quot;&gt;Manage blog posts&lt;/font&gt;" style="rounded=1;whiteSpace=wrap;html=1;fontSize=12;glass=0;strokeWidth=1;shadow=0;fillColor=light-dark(#F59E0B,#F59E0B);strokeColor=light-dark(#000000,#000000);" vertex="1" parent="1">
          <mxGeometry x="415" y="597.34" width="120" height="40" as="geometry" />
        </mxCell>
        <mxCell id="UaSYW-c0ICVF9EInqUsB-194" value="" style="endArrow=open;endFill=1;endSize=12;html=1;rounded=0;strokeColor=light-dark(#000000,#000000);entryX=0.5;entryY=0;entryDx=0;entryDy=0;" edge="1" parent="1" source="UaSYW-c0ICVF9EInqUsB-172" target="UaSYW-c0ICVF9EInqUsB-193">
          <mxGeometry width="160" relative="1" as="geometry">
            <mxPoint x="475" y="510" as="sourcePoint" />
            <mxPoint x="535" y="617.34" as="targetPoint" />
          </mxGeometry>
        </mxCell>
        <mxCell id="UaSYW-c0ICVF9EInqUsB-195" value="" style="endArrow=open;endFill=1;endSize=12;html=1;rounded=0;strokeColor=light-dark(#000000,#000000);exitX=0.5;exitY=1;exitDx=0;exitDy=0;" edge="1" parent="1" source="UaSYW-c0ICVF9EInqUsB-193" target="UaSYW-c0ICVF9EInqUsB-177">
          <mxGeometry width="160" relative="1" as="geometry">
            <mxPoint x="445" y="639.34" as="sourcePoint" />
            <mxPoint x="475" y="802.5" as="targetPoint" />
          </mxGeometry>
        </mxCell>
      </root>
    </mxGraphModel>
  </diagram>
</mxfile>
